HIERARCHY
ROOT Hips
{
	OFFSET 0.00000 0.00000 0.00000
	CHANNELS 6 Xposition Yposition Zposition Zrotation Yrotation Xrotation 
	JOINT LHipJoint
	{
		OFFSET 0 0 0
		CHANNELS 3 Zrotation Yrotation Xrotation
		JOINT LeftUpLeg
		{
			OFFSET 1.75344 -1.53157 0.77399
			CHANNELS 3 Zrotation Yrotation Xrotation
			JOINT LeftLeg
			{
				OFFSET 2.25415 -6.19323 0.00000
				CHANNELS 3 Zrotation Yrotation Xrotation
				JOINT LeftFoot
				{
					OFFSET 2.30342 -6.32861 0.00000
					CHANNELS 3 Zrotation Yrotation Xrotation
					JOINT LeftToeBase
					{
						OFFSET 0.10958 -0.30108 1.49206
						CHANNELS 3 Zrotation Yrotation Xrotation
						End Site
						{
							OFFSET 0.00000 -0.00000 0.77783
						}
					}
				}
			}
		}
	}
	JOINT RHipJoint
	{
		OFFSET 0 0 0
		CHANNELS 3 Zrotation Yrotation Xrotation
		JOINT RightUpLeg
		{
			OFFSET -1.81912 -1.53156 0.77399
			CHANNELS 3 Zrotation Yrotation Xrotation
			JOINT RightLeg
			{
				OFFSET -2.22882 -6.12365 0.00000
				CHANNELS 3 Zrotation Yrotation Xrotation
				JOINT RightFoot
				{
					OFFSET -2.21943 -6.09785 0.00000
					CHANNELS 3 Zrotation Yrotation Xrotation
					JOINT RightToeBase
					{
						OFFSET -0.18931 -0.52012 1.59379
						CHANNELS 3 Zrotation Yrotation Xrotation
						End Site
						{
							OFFSET -0.00000 -0.00000 0.84686
						}
					}
				}
			}
		}
	}
	JOINT LowerBack
	{
		OFFSET 0 0 0
		CHANNELS 3 Zrotation Yrotation Xrotation
		JOINT Spine
		{
			OFFSET -0.00200 1.66634 -0.14248
			CHANNELS 3 Zrotation Yrotation Xrotation
			JOINT Spine1
			{
				OFFSET -0.00875 1.64542 0.09514
				CHANNELS 3 Zrotation Yrotation Xrotation
				JOINT Neck
				{
					OFFSET 0 0 0
					CHANNELS 3 Zrotation Yrotation Xrotation
					JOINT Neck1
					{
						OFFSET 0.02257 1.59605 0.00839
						CHANNELS 3 Zrotation Yrotation Xrotation
						JOINT Head
						{
							OFFSET -0.10214 1.57530 -0.23335
							CHANNELS 3 Zrotation Yrotation Xrotation
							End Site
							{
								OFFSET -0.03588 1.60717 -0.08062
							}
						}
					}
				}
				JOINT LeftShoulder
				{
					OFFSET 0 0 0
					CHANNELS 3 Zrotation Yrotation Xrotation
					JOINT LeftArm
					{
						OFFSET 2.54983 1.10186 0.40078
						CHANNELS 3 Zrotation Yrotation Xrotation
						JOINT LeftForeArm
						{
							OFFSET 4.28840 -0.00000 0.00000
							CHANNELS 3 Zrotation Yrotation Xrotation
							JOINT LeftHand
							{
								OFFSET 3.06552 -0.00000 -0.00000
								CHANNELS 3 Zrotation Yrotation Xrotation
								JOINT LeftFingerBase
								{
									OFFSET 0 0 0
									CHANNELS 3 Zrotation Yrotation Xrotation
									JOINT LeftHandIndex1
									{
										OFFSET 0.75304 -0.00000 0.00000
										CHANNELS 3 Zrotation Yrotation Xrotation
										End Site
										{
											OFFSET 0.60712 -0.00000 0.00000
										}
									}
								}
								JOINT LThumb
								{
									OFFSET 0 0 0
									CHANNELS 3 Zrotation Yrotation Xrotation
									End Site
									{
										OFFSET 0.61639 -0.00000 0.61639
									}
								}
							}
						}
					}
				}
				JOINT RightShoulder
				{
					OFFSET 0 0 0
					CHANNELS 3 Zrotation Yrotation Xrotation
					JOINT RightArm
					{
						OFFSET -2.60909 1.35448 0.21802
						CHANNELS 3 Zrotation Yrotation Xrotation
						JOINT RightForeArm
						{
							OFFSET -4.52172 -0.00000 -0.00000
							CHANNELS 3 Zrotation Yrotation Xrotation
							JOINT RightHand
							{
								OFFSET -2.89140 -0.00000 0.00000
								CHANNELS 3 Zrotation Yrotation Xrotation
								JOINT RightFingerBase
								{
									OFFSET 0 0 0
									CHANNELS 3 Zrotation Yrotation Xrotation
									JOINT RightHandIndex1
									{
										OFFSET -0.68054 -0.00000 0.00000
										CHANNELS 3 Zrotation Yrotation Xrotation
										End Site
										{
											OFFSET -0.54867 -0.00000 0.00000
										}
									}
								}
								JOINT RThumb
								{
									OFFSET 0 0 0
									CHANNELS 3 Zrotation Yrotation Xrotation
									End Site
									{
										OFFSET -0.55705 -0.00000 0.55705
									}
								}
							}
						}
					}
				}
			}
		}
	}
}
MOTION
Frames: 13
Frame Time: .0083333
9.3681 15.4099 -36.0540 -182.1280 -57.7004 182.6820 0.0000 0.0000 0.0000 -27.6172 -22.9973 -4.2760 1.6989 8.2085 23.3493 0.9838 -8.7412 -17.8350 0.3710 -3.9125 -10.8305 0.0000 0.0000 0.0000 17.6903 4.2991 -16.8988 -9.9082 -17.3579 59.1810 0.1565 -14.9965 -19.5441 -0.3414 3.7546 -10.3874 2.3077 3.2578 10.6261 2.0829 4.8101 -2.3320 0.0664 2.2620 -8.4393 -7.1137 -8.0998 -8.9158 -6.3906 -9.4224 11.4756 -1.5144 -5.4211 4.9605 0.0000 -0.0000 0.0000 -86.4421 -6.2282 53.2687 41.2703 -48.8048 -19.3898 -0.0000 0.0000 -4.5881 12.5004 -31.3631 -6.5821 -7.1250 0.0000 -0.0000 -10.7969 -1.4992 11.2758 0.0000 -0.0000 0.0000 75.2143 25.7365 18.5504 -20.2527 30.9456 -5.6607 0.0000 0.0000 9.5334 -11.2485 -53.1139 9.0386 7.1250 -0.0000 -0.0000 67.5613 -75.4757 -53.1113
9.3585 15.4008 -36.1021 -182.4550 -59.5429 182.8050 0.0000 0.0000 0.0000 -27.7876 -23.3246 -3.8606 1.6913 8.1912 23.2962 0.8891 -10.2301 -17.2374 0.2928 -3.4797 -9.6173 0.0000 0.0000 0.0000 17.6466 4.8894 -17.3555 -10.2900 -17.5697 60.4533 -0.0453 -13.3836 -19.5555 -0.3998 4.0597 -11.2446 2.2046 3.4864 10.7417 1.9228 5.0981 -2.3316 -0.1035 2.4033 -8.4968 -6.2401 -7.1344 -9.6353 -6.7389 -8.0874 11.9737 -1.7000 -4.7794 5.1827 0.0000 0.0000 0.0000 -86.2969 -7.2860 55.5881 41.5781 -48.9776 -19.6217 -0.0000 0.0000 -4.8820 11.7422 -31.3896 -6.1790 -7.1250 0.0000 -0.0000 -11.2284 -1.4139 11.7274 0.0000 0.0000 0.0000 75.2108 25.6424 20.5574 -20.3979 31.1187 -5.7356 0.0000 0.0000 12.2920 -10.1326 -51.5833 7.9710 7.1250 -0.0000 -0.0000 62.6570 -74.5377 -47.6780
9.3536 15.3929 -36.1494 -182.7970 -61.5695 183.1180 0.0000 0.0000 0.0000 -27.8741 -23.9289 -3.7230 1.7159 8.2475 23.4683 0.8057 -11.7931 -16.8761 0.3020 -3.5335 -9.7677 0.0000 0.0000 0.0000 17.6371 5.5839 -17.9308 -10.5632 -17.7146 61.3548 -0.2027 -12.0977 -19.6698 -0.6202 5.0398 -14.0222 2.0243 3.6675 10.7285 1.8287 5.3104 -2.3258 -0.1395 2.5147 -8.4878 -6.4203 -6.4338 -10.5306 -6.4757 -7.0103 12.5568 -1.5626 -4.2736 5.5408 0.0000 0.0000 0.0000 -86.4639 -7.5144 56.9913 43.3405 -49.9291 -20.9609 -0.0000 0.0000 -4.2063 10.1133 -31.6425 -5.3459 -7.1250 0.0000 -0.0000 -12.1658 -1.4336 12.7546 0.0000 0.0000 0.0000 74.8188 25.7705 22.5441 -20.5729 31.3264 -5.8263 0.0000 0.0000 14.4945 -9.1718 -50.2851 7.0799 7.1250 -0.0000 -0.0000 59.0639 -73.6386 -43.5912
9.3468 15.3807 -36.1967 -182.9720 -63.6560 183.3210 0.0000 0.0000 0.0000 -27.8294 -24.5586 -3.7064 1.7645 8.3573 23.8047 0.7407 -13.1570 -16.7321 0.3186 -3.6285 -10.0337 0.0000 0.0000 0.0000 17.7301 6.3018 -18.3791 -10.7274 -17.7991 61.8931 -0.4020 -10.7525 -20.2769 -0.6596 5.1945 -14.4642 2.0212 3.7944 10.7941 1.7315 5.4780 -2.3678 -0.2762 2.5927 -8.5601 -4.8873 -5.3771 -11.3330 -7.5308 -5.5890 12.9907 -2.0541 -3.6167 5.7379 0.0000 0.0000 0.0000 -85.8954 -8.7385 59.9679 43.5708 -50.0488 -21.1373 -0.0000 0.0000 -5.1856 9.8380 -31.8962 -5.2353 -7.1250 0.0000 -0.0000 -12.3374 -1.6444 12.9879 0.0000 0.0000 0.0000 74.4497 25.9195 24.1718 -20.8366 31.6371 -5.9640 0.0000 0.0000 16.3093 -8.4112 -49.0726 6.3746 7.1250 -0.0000 -0.0000 56.0242 -72.7812 -40.1277
9.3364 15.3626 -36.2472 -183.0250 -65.8352 183.4510 0.0000 0.0000 0.0000 -27.7003 -25.2557 -3.7725 1.8297 8.5021 24.2497 0.6411 -14.6358 -16.4386 0.2278 -3.0721 -8.4797 0.0000 0.0000 0.0000 17.8852 6.9440 -18.7412 -10.7676 -17.8195 62.0246 -0.5651 -9.8136 -20.9805 -0.6403 5.1192 -14.2489 2.1587 3.8490 10.8235 1.5740 5.5631 -2.4307 -0.5380 2.6221 -8.6147 -3.8358 -4.3797 -11.9210 -7.9217 -4.2822 13.3076 -2.2616 -2.9782 5.9231 -0.0000 0.0000 0.0000 -85.4664 -9.5657 61.9036 44.4265 -50.4844 -21.7954 -0.0000 0.0000 -5.1129 9.3653 -32.0341 -4.9996 -7.1250 0.0000 -0.0000 -12.6112 -1.7160 13.3060 -0.0000 0.0000 0.0000 74.3338 26.0698 25.5917 -21.1231 31.9718 -6.1150 0.0000 0.0000 18.0301 -7.9684 -48.0197 5.9407 7.1250 -0.0000 -0.0000 53.4983 -72.0699 -37.3269
9.3234 15.3486 -36.3061 -182.9500 -68.1980 183.4900 0.0000 0.0000 0.0000 -27.4020 -25.6381 -4.1331 1.9103 8.6767 24.7890 0.4515 -16.7727 -15.8419 0.2134 -2.9743 -8.2071 0.0000 0.0000 0.0000 18.1075 7.7060 -19.0129 -10.6763 -17.7730 61.7259 -0.6991 -9.1707 -21.6758 -0.6081 4.9912 -13.8835 2.2921 3.8228 10.7193 1.4338 5.5336 -2.4378 -0.7468 2.5999 -8.5351 -3.0060 -3.4029 -12.4363 -8.0399 -3.0235 13.4418 -2.3417 -2.3435 6.0647 0.0000 -0.0000 0.0000 -85.0550 -10.2594 63.5823 45.1829 -50.8578 -22.3805 -0.0000 0.0000 -4.7999 9.1795 -32.1017 -4.9083 -7.1250 0.0000 -0.0000 -12.7195 -1.7575 13.4351 0.0000 -0.0000 0.0000 74.3105 26.3845 26.9530 -21.3698 32.2574 -6.2461 0.0000 0.0000 19.2787 -8.1622 -47.5096 6.0373 7.1250 -0.0000 -0.0000 52.0103 -71.8552 -35.9186
9.3055 15.3401 -36.3657 -182.3660 -70.7758 183.0030 0.0000 0.0000 0.0000 -26.8530 -25.6050 -4.7092 1.9968 8.8593 25.3563 0.1534 -19.3562 -14.8984 0.2694 -3.3386 -9.2230 0.0000 0.0000 0.0000 18.4613 8.3180 -19.1296 -10.4629 -17.6621 61.0245 -0.8451 -8.4421 -22.3954 -0.4899 4.4876 -12.4528 2.6398 3.7044 10.6106 1.4093 5.4155 -2.4133 -0.9350 2.5271 -8.4136 -2.3673 -2.4423 -12.8090 -8.1627 -1.7788 13.4483 -2.3839 -1.7209 6.1565 0.0000 -0.0000 0.0000 -85.1434 -11.0450 65.0892 45.4084 -50.9670 -22.5556 -0.0000 0.0000 -4.3029 9.2237 -32.0227 -4.9215 -7.1250 0.0000 -0.0000 -12.6897 -1.6863 13.3865 0.0000 -0.0000 0.0000 74.2048 26.7571 28.1187 -21.6157 32.5400 -6.3779 0.0000 0.0000 19.9177 -8.4505 -47.1463 6.2158 7.1250 -0.0000 -0.0000 50.8383 -71.7481 -34.8858
9.2820 15.3284 -36.4184 -181.7040 -73.4029 182.3640 0.0000 0.0000 0.0000 -26.4903 -25.9642 -4.9654 2.0766 9.0239 25.8700 -0.0281 -20.9809 -14.5518 0.5002 -4.5341 -12.5843 0.0000 0.0000 0.0000 18.7274 8.7585 -19.0422 -10.1448 -17.4905 59.9711 -0.9289 -8.2818 -23.0030 -0.5033 4.5481 -12.6239 3.0974 3.6067 10.6249 1.4203 5.3490 -2.4496 -1.1671 2.4707 -8.4229 -1.8279 -1.4668 -13.0976 -8.3634 -0.4891 13.5729 -2.4284 -1.0941 6.2843 0.0000 0.0000 0.0000 -84.6231 -11.1984 67.1957 46.8030 -51.6218 -23.6439 -0.0000 0.0000 -4.4493 9.7948 -31.8628 -5.2071 -7.1250 0.0000 -0.0000 -12.3595 -1.6059 13.0041 0.0000 0.0000 0.0000 73.9839 26.8960 28.6817 -21.9125 32.8780 -6.5383 0.0000 0.0000 20.5632 -7.7942 -46.5005 5.6703 7.1250 -0.0000 -0.0000 49.8350 -71.1371 -33.4977
9.2554 15.3184 -36.4767 -181.5550 -75.9690 182.2120 0.0000 0.0000 0.0000 -26.3943 -26.7670 -4.9216 2.1472 9.1662 26.3167 -0.0379 -21.7229 -15.0133 0.9703 -6.2714 -17.5739 0.0000 0.0000 0.0000 18.8127 9.5089 -18.7044 -9.7367 -17.2591 58.6045 -0.9797 -8.3846 -23.5169 -0.5655 4.8163 -13.3854 3.2534 3.5166 10.6979 1.4204 5.2576 -2.5510 -1.2470 2.4136 -8.5647 -1.0860 -0.3828 -13.4494 -8.7063 0.9395 13.8150 -2.5373 -0.4089 6.4774 0.0000 0.0000 0.0000 -85.1371 -11.2921 67.9631 46.7991 -51.6200 -23.6408 -0.0000 0.0000 -3.0052 9.7136 -32.8881 -5.3104 -7.1250 0.0000 -0.0000 -12.4752 -2.5958 13.3421 0.0000 0.0000 0.0000 73.7443 26.9901 29.1467 -22.1406 33.1355 -6.6625 0.0000 0.0000 20.9606 -6.0890 -45.9740 4.3861 7.1250 -0.0000 -0.0000 50.1369 -70.2354 -32.8258
9.2260 15.3180 -36.5466 -181.5710 -78.5827 182.2620 0.0000 0.0000 0.0000 -26.2313 -27.3563 -4.9708 2.2002 9.2712 26.6475 -0.2957 -23.4620 -14.3829 0.9743 -6.2839 -17.6103 0.0000 0.0000 0.0000 18.8346 10.3825 -18.2392 -9.2464 -16.9637 56.9384 -1.0448 -8.3773 -24.0529 -0.6125 5.0089 -13.9339 3.1677 3.3699 10.7444 1.4041 5.0557 -2.6536 -1.1893 2.3154 -8.7164 -0.0772 0.7391 -13.8246 -9.0959 2.3736 14.0383 -2.6977 0.2893 6.6881 0.0000 0.0000 0.0000 -84.8831 -11.2280 68.9675 47.5209 -51.9454 -24.2080 -0.0000 0.0000 -2.2259 9.7017 -33.5011 -5.3907 -7.1250 0.0000 -0.0000 -12.5265 -3.1919 13.5246 0.0000 0.0000 0.0000 73.3635 27.2802 30.1371 -22.2821 33.2943 -6.7400 0.0000 0.0000 20.3265 -3.7469 -45.9457 2.6947 7.1250 -0.0000 -0.0000 52.1422 -69.4341 -33.5215
9.1934 15.3192 -36.6181 -181.6830 -81.2483 182.4000 0.0000 0.0000 0.0000 -26.0635 -27.6423 -5.0813 2.2302 9.3299 26.8328 -0.4256 -24.7958 -14.5280 1.6721 -8.1468 -23.1609 0.0000 0.0000 0.0000 18.7909 11.3450 -17.6427 -8.6933 -16.6063 55.0234 -1.1064 -8.5528 -24.6852 -0.7008 5.3511 -14.9128 3.0827 3.2521 10.7607 1.3165 4.8835 -2.6999 -1.2079 2.2329 -8.7811 1.0972 1.7695 -14.0983 -9.5401 3.6448 14.1661 -2.9113 0.9189 6.8666 -0.0000 -0.0000 0.0000 -83.9597 -11.3054 70.6756 48.9168 -52.5492 -25.3117 -0.0000 0.0000 -2.3061 10.3219 -33.2076 -5.6961 -7.1250 0.0000 -0.0000 -12.1624 -2.9922 13.0726 -0.0000 -0.0000 0.0000 72.9164 27.6283 30.8990 -22.4766 33.5115 -6.8471 0.0000 0.0000 19.0878 -2.0272 -46.0171 1.4590 7.1250 -0.0000 -0.0000 53.7857 -68.9095 -34.2120
9.1584 15.3180 -36.6882 -182.5680 -83.9283 183.3680 0.0000 0.0000 0.0000 -25.9526 -27.9494 -5.1948 2.2476 9.3638 26.9401 -0.5066 -25.7097 -14.7309 2.4136 -9.6791 -27.9436 0.0000 0.0000 0.0000 18.5876 12.6243 -16.9519 -8.1078 -16.1980 52.9501 -1.1913 -8.5585 -25.3571 -0.7696 5.6016 -15.6327 2.9136 3.1364 10.6363 1.2637 4.6973 -2.7075 -1.1299 2.1525 -8.7322 2.0760 2.7948 -14.2860 -9.9331 4.9300 14.2178 -3.0676 1.5516 7.0236 -0.0000 -0.0000 0.0000 -84.2642 -11.3324 71.0197 48.6293 -52.4275 -25.0836 -0.0000 0.0000 -0.9875 10.7779 -33.2257 -5.9548 -7.1250 0.0000 -0.0000 -11.9118 -3.0752 12.8076 -0.0000 -0.0000 0.0000 72.4500 28.0128 31.2477 -22.6698 33.7257 -6.9541 0.0000 0.0000 17.9991 -1.4394 -46.0800 1.0369 7.1250 -0.0000 -0.0000 54.4219 -68.7535 -34.5281
9.1243 15.3217 -36.7572 -185.0290 -86.6597 186.0680 0.0000 0.0000 0.0000 -25.7311 -28.5233 -5.3875 2.2565 9.3811 26.9949 -0.6411 -26.8505 -14.7976 3.0978 -10.8517 -31.7814 0.0000 0.0000 0.0000 18.2917 14.1123 -16.3280 -7.5126 -15.7488 50.7876 -1.2620 -8.5598 -25.8992 -0.9073 6.0700 -16.9877 2.7682 3.0033 10.4227 1.2306 4.4908 -2.7678 -1.0373 2.0609 -8.6887 2.9508 3.7404 -14.2642 -10.5516 6.1300 13.9158 -3.2825 2.1328 7.0486 0.0000 0.0000 0.0000 -84.4901 -11.3663 71.4892 48.3575 -52.3112 -24.8683 -0.0000 0.0000 -0.2927 11.1459 -33.4740 -6.2020 -7.1250 0.0000 -0.0000 -11.7289 -3.3717 12.6604 0.0000 0.0000 0.0000 71.9532 28.3876 31.3036 -22.7971 33.8662 -7.0249 0.0000 0.0000 17.3664 -0.7794 -46.3814 0.5643 7.1250 -0.0000 -0.0000 55.6199 -68.7087 -35.4018
